<?xml version="1.0" encoding="utf-8" standalone="no"?>
<!DOCTYPE svg PUBLIC "-//W3C//DTD SVG 1.1//EN"
  "http://www.w3.org/Graphics/SVG/1.1/DTD/svg11.dtd">
<svg xmlns:xlink="http://www.w3.org/1999/xlink" width="295.520937pt" height="310.005687pt" viewBox="0 0 295.520937 310.005687" xmlns="http://www.w3.org/2000/svg" version="1.1">
 <metadata>
  <rdf:RDF xmlns:dc="http://purl.org/dc/elements/1.1/" xmlns:cc="http://creativecommons.org/ns#" xmlns:rdf="http://www.w3.org/1999/02/22-rdf-syntax-ns#">
   <cc:Work>
    <dc:type rdf:resource="http://purl.org/dc/dcmitype/StillImage"/>
    <dc:date>2025-08-06T13:47:54.290927</dc:date>
    <dc:format>image/svg+xml</dc:format>
    <dc:creator>
     <cc:Agent>
      <dc:title>Matplotlib v3.7.5, https://matplotlib.org/</dc:title>
     </cc:Agent>
    </dc:creator>
   </cc:Work>
  </rdf:RDF>
 </metadata>
 <defs>
  <style type="text/css">*{stroke-linejoin: round; stroke-linecap: butt}</style>
 </defs>
 <g id="figure_1">
  <g id="patch_1">
   <path d="M 0 310.005687 
L 295.520937 310.005687 
L 295.520937 0 
L 0 0 
z
" style="fill: #ffffff"/>
  </g>
  <g id="axes_1">
   <g id="patch_2">
    <path d="M 65.120937 258.45225 
L 288.320938 258.45225 
L 288.320938 36.69225 
L 65.120937 36.69225 
z
" style="fill: #ffffff"/>
   </g>
   <g id="matplotlib.axis_1">
    <g id="xtick_1">
     <g id="line2d_1">
      <defs>
       <path id="m9ef987801d" d="M 0 0 
L 0 3.5 
" style="stroke: #000000; stroke-width: 0.8"/>
      </defs>
      <g>
       <use xlink:href="#m9ef987801d" x="83.720937" y="258.45225" style="stroke: #000000; stroke-width: 0.8"/>
      </g>
     </g>
     <g id="text_1">
      <text style="font: 18px 'Arial', serif; text-anchor: middle" x="83.720937" y="278.336312" transform="rotate(-0 83.720937 278.336312)">0</text>
     </g>
    </g>
    <g id="xtick_2">
     <g id="line2d_2">
      <g>
       <use xlink:href="#m9ef987801d" x="120.920937" y="258.45225" style="stroke: #000000; stroke-width: 0.8"/>
      </g>
     </g>
     <g id="text_2">
      <text style="font: 18px 'Arial', serif; text-anchor: middle" x="120.920937" y="278.336312" transform="rotate(-0 120.920937 278.336312)">20</text>
     </g>
    </g>
    <g id="xtick_3">
     <g id="line2d_3">
      <g>
       <use xlink:href="#m9ef987801d" x="158.120937" y="258.45225" style="stroke: #000000; stroke-width: 0.8"/>
      </g>
     </g>
     <g id="text_3">
      <text style="font: 18px 'Arial', serif; text-anchor: middle" x="158.120937" y="278.336312" transform="rotate(-0 158.120937 278.336312)">40</text>
     </g>
    </g>
    <g id="xtick_4">
     <g id="line2d_4">
      <g>
       <use xlink:href="#m9ef987801d" x="195.320938" y="258.45225" style="stroke: #000000; stroke-width: 0.8"/>
      </g>
     </g>
     <g id="text_4">
      <text style="font: 18px 'Arial', serif; text-anchor: middle" x="195.320938" y="278.336312" transform="rotate(-0 195.320938 278.336312)">60</text>
     </g>
    </g>
    <g id="xtick_5">
     <g id="line2d_5">
      <g>
       <use xlink:href="#m9ef987801d" x="232.520938" y="258.45225" style="stroke: #000000; stroke-width: 0.8"/>
      </g>
     </g>
     <g id="text_5">
      <text style="font: 18px 'Arial', serif; text-anchor: middle" x="232.520938" y="278.336312" transform="rotate(-0 232.520938 278.336312)">80</text>
     </g>
    </g>
    <g id="xtick_6">
     <g id="line2d_6">
      <g>
       <use xlink:href="#m9ef987801d" x="269.720937" y="258.45225" style="stroke: #000000; stroke-width: 0.8"/>
      </g>
     </g>
     <g id="text_6">
      <text style="font: 18px 'Arial', serif; text-anchor: middle" x="269.720937" y="278.336312" transform="rotate(-0 269.720937 278.336312)">100</text>
     </g>
    </g>
    <g id="text_7">
     <text style="font: 18px 'Arial', serif; text-anchor: middle" x="176.720937" y="299.01725" transform="rotate(-0 176.720937 299.01725)">Concentration (g/kg)</text>
    </g>
   </g>
   <g id="matplotlib.axis_2">
    <g id="ytick_1">
     <g id="line2d_7">
      <defs>
       <path id="m418c94faee" d="M 0 0 
L -3.5 0 
" style="stroke: #000000; stroke-width: 0.8"/>
      </defs>
      <g>
       <use xlink:href="#m418c94faee" x="65.120937" y="236.27625" style="stroke: #000000; stroke-width: 0.8"/>
      </g>
     </g>
     <g id="text_8">
      <text style="font: 18px 'Arial', serif; text-anchor: end" x="58.120937" y="242.718281" transform="rotate(-0 58.120937 242.718281)">85</text>
     </g>
    </g>
    <g id="ytick_2">
     <g id="line2d_8">
      <g>
       <use xlink:href="#m418c94faee" x="65.120937" y="191.92425" style="stroke: #000000; stroke-width: 0.8"/>
      </g>
     </g>
     <g id="text_9">
      <text style="font: 18px 'Arial', serif; text-anchor: end" x="58.120937" y="198.366281" transform="rotate(-0 58.120937 198.366281)">90</text>
     </g>
    </g>
    <g id="ytick_3">
     <g id="line2d_9">
      <g>
       <use xlink:href="#m418c94faee" x="65.120937" y="147.57225" style="stroke: #000000; stroke-width: 0.8"/>
      </g>
     </g>
     <g id="text_10">
      <text style="font: 18px 'Arial', serif; text-anchor: end" x="58.120937" y="154.014281" transform="rotate(-0 58.120937 154.014281)">95</text>
     </g>
    </g>
    <g id="ytick_4">
     <g id="line2d_10">
      <g>
       <use xlink:href="#m418c94faee" x="65.120937" y="103.22025" style="stroke: #000000; stroke-width: 0.8"/>
      </g>
     </g>
     <g id="text_11">
      <text style="font: 18px 'Arial', serif; text-anchor: end" x="58.120937" y="109.662281" transform="rotate(-0 58.120937 109.662281)">100</text>
     </g>
    </g>
    <g id="ytick_5">
     <g id="line2d_11">
      <g>
       <use xlink:href="#m418c94faee" x="65.120937" y="58.86825" style="stroke: #000000; stroke-width: 0.8"/>
      </g>
     </g>
     <g id="text_12">
      <text style="font: 18px 'Arial', serif; text-anchor: end" x="58.120937" y="65.310281" transform="rotate(-0 58.120937 65.310281)">105</text>
     </g>
    </g>
    <g id="text_13">
     <text style="font: 18px 'Arial', serif; text-anchor: middle" x="20.303437" y="147.57225" transform="rotate(-90 20.303437 147.57225)">Enthalpy (kJ/kg)</text>
    </g>
   </g>
   <g id="patch_3">
    <path d="M 65.120937 258.45225 
L 65.120937 36.69225 
" style="fill: none; stroke: #000000; stroke-width: 0.8; stroke-linejoin: miter; stroke-linecap: square"/>
   </g>
   <g id="patch_4">
    <path d="M 288.320938 258.45225 
L 288.320938 36.69225 
" style="fill: none; stroke: #000000; stroke-width: 0.8; stroke-linejoin: miter; stroke-linecap: square"/>
   </g>
   <g id="patch_5">
    <path d="M 65.120937 258.45225 
L 288.320938 258.45225 
" style="fill: none; stroke: #000000; stroke-width: 0.8; stroke-linejoin: miter; stroke-linecap: square"/>
   </g>
   <g id="patch_6">
    <path d="M 65.120937 36.69225 
L 288.320938 36.69225 
" style="fill: none; stroke: #000000; stroke-width: 0.8; stroke-linejoin: miter; stroke-linecap: square"/>
   </g>
   <g id="text_14">
    <text style="font: 16px 'Arial', serif; text-anchor: middle" x="18.620937" y="18.6525" transform="rotate(-0 18.620937 18.6525)">A</text>
   </g>
   <g id="line2d_12">
    <path d="M 93.020937 69.423139 
L 102.320937 75.784103 
L 111.620937 82.108698 
L 120.920937 88.400473 
L 130.220937 94.662088 
L 139.520938 100.893544 
L 148.820938 107.094308 
L 158.120937 113.264736 
L 167.420937 119.404295 
L 176.720937 125.512452 
L 186.020938 131.588676 
L 195.320938 137.632346 
L 204.620937 143.64284 
L 213.920938 149.61945 
L 223.220937 155.561642 
L 232.520938 161.468885 
L 241.820937 167.340646 
L 251.120937 173.176571 
L 260.420938 178.976216 
L 269.720937 184.739403 
" clip-path="url(#pd31d0ca566)" style="fill: none; stroke: #ffd046; stroke-width: 2; stroke-linecap: square"/>
   </g>
   <g id="line2d_13">
    <path d="M 93.020937 71.584855 
L 102.320937 80.072054 
L 111.620937 88.478532 
L 120.920937 96.805177 
L 130.220937 105.050834 
L 139.520938 113.213997 
L 148.820938 121.292359 
L 158.120937 129.283437 
L 167.420937 137.185544 
L 176.720937 144.995576 
L 186.020938 152.711848 
L 195.320938 160.332675 
L 204.620937 167.856637 
L 213.920938 175.282581 
L 223.220937 182.609975 
L 232.520938 189.838553 
L 241.820937 196.972217 
L 251.120937 204.004582 
L 260.420938 210.939904 
L 269.720937 217.779603 
" clip-path="url(#pd31d0ca566)" style="fill: none; stroke-dasharray: 7.4,3.2; stroke-dashoffset: 0; stroke: #4a7b9d; stroke-width: 2"/>
   </g>
   <g id="line2d_14">
    <path d="M 93.020937 72.270537 
L 102.320937 81.427451 
L 111.620937 90.490339 
L 120.920937 99.456539 
L 130.220937 108.325076 
L 139.520938 117.091515 
L 148.820938 125.75213 
L 158.120937 134.302841 
L 167.420937 142.739656 
L 176.720937 151.059648 
L 186.020938 159.258115 
L 195.320938 167.333195 
L 204.620937 175.282581 
L 213.920938 183.105032 
L 223.220937 190.799838 
L 232.520938 198.367265 
L 241.820937 205.808111 
L 251.120937 213.132667 
L 260.420938 220.326295 
L 269.720937 227.399375 
" clip-path="url(#pd31d0ca566)" style="fill: none; stroke-dasharray: 2,3.3; stroke-dashoffset: 0; stroke: #4a7b9d; stroke-width: 2"/>
   </g>
   <g id="legend_1">
    <g id="line2d_15">
     <path d="M 75.920937 207.1185 
L 87.920937 207.1185 
L 99.920937 207.1185 
" style="fill: none; stroke: #ffd046; stroke-width: 2; stroke-linecap: square"/>
    </g>
    <g id="text_15">
     <text style="font: 12px 'Arial', serif; text-anchor: start" x="109.520938" y="211.3185" transform="rotate(-0 109.520938 211.3185)">Seawater</text>
    </g>
    <g id="line2d_16">
     <path d="M 75.920937 224.092875 
L 87.920937 224.092875 
L 99.920937 224.092875 
" style="fill: none; stroke-dasharray: 7.4,3.2; stroke-dashoffset: 0; stroke: #4a7b9d; stroke-width: 2"/>
    </g>
    <g id="text_16">
     <text style="font: 12px 'Arial', serif; text-anchor: start" x="109.520938" y="228.292875" transform="rotate(-0 109.520938 228.292875)">Monovalent dominant</text>
    </g>
    <g id="line2d_17">
     <path d="M 75.920937 241.06725 
L 87.920937 241.06725 
L 99.920937 241.06725 
" style="fill: none; stroke-dasharray: 2,3.3; stroke-dashoffset: 0; stroke: #4a7b9d; stroke-width: 2"/>
    </g>
    <g id="text_17">
     <text style="font: 12px 'Arial', serif; text-anchor: start" x="109.520938" y="245.26725" transform="rotate(-0 109.520938 245.26725)">Divalent dominant</text>
    </g>
   </g>
  </g>
 </g>
 <defs>
  <clipPath id="pd31d0ca566">
   <rect x="65.120937" y="36.69225" width="223.2" height="221.76"/>
  </clipPath>
 </defs>
</svg>
