<?xml version="1.0" encoding="utf-8" standalone="no"?>
<!DOCTYPE svg PUBLIC "-//W3C//DTD SVG 1.1//EN"
  "http://www.w3.org/Graphics/SVG/1.1/DTD/svg11.dtd">
<svg xmlns:xlink="http://www.w3.org/1999/xlink" width="356.86125pt" height="370.989688pt" viewBox="0 0 356.86125 370.989688" xmlns="http://www.w3.org/2000/svg" version="1.1">
 <metadata>
  <rdf:RDF xmlns:dc="http://purl.org/dc/elements/1.1/" xmlns:cc="http://creativecommons.org/ns#" xmlns:rdf="http://www.w3.org/1999/02/22-rdf-syntax-ns#">
   <cc:Work>
    <dc:type rdf:resource="http://purl.org/dc/dcmitype/StillImage"/>
    <dc:date>2024-12-09T11:52:22.637415</dc:date>
    <dc:format>image/svg+xml</dc:format>
    <dc:creator>
     <cc:Agent>
      <dc:title>Matplotlib v3.8.2, https://matplotlib.org/</dc:title>
     </cc:Agent>
    </dc:creator>
   </cc:Work>
  </rdf:RDF>
 </metadata>
 <defs>
  <style type="text/css">*{stroke-linejoin: round; stroke-linecap: butt}</style>
 </defs>
 <g id="figure_1">
  <g id="patch_1">
   <path d="M 0 370.989688 
L 356.86125 370.989688 
L 356.86125 -0 
L 0 -0 
z
" style="fill: #ffffff"/>
  </g>
  <g id="axes_1">
   <g id="patch_2">
    <path d="M 70.66125 319.43625 
L 349.66125 319.43625 
L 349.66125 42.23625 
L 70.66125 42.23625 
z
" style="fill: #ffffff"/>
   </g>
   <g id="matplotlib.axis_1">
    <g id="xtick_1">
     <g id="line2d_1">
      <defs>
       <path id="mb33424c0d0" d="M 0 0 
L 0 3.5 
" style="stroke: #000000; stroke-width: 0.8"/>
      </defs>
      <g>
       <use xlink:href="#mb33424c0d0" x="93.91125" y="319.43625" style="stroke: #000000; stroke-width: 0.8"/>
      </g>
     </g>
     <g id="text_1">
      <text style="font: 18px 'Arial', serif; text-anchor: middle" x="93.91125" y="339.320313" transform="rotate(-0 93.91125 339.320313)">0</text>
     </g>
    </g>
    <g id="xtick_2">
     <g id="line2d_2">
      <g>
       <use xlink:href="#mb33424c0d0" x="140.41125" y="319.43625" style="stroke: #000000; stroke-width: 0.8"/>
      </g>
     </g>
     <g id="text_2">
      <text style="font: 18px 'Arial', serif; text-anchor: middle" x="140.41125" y="339.320313" transform="rotate(-0 140.41125 339.320313)">20</text>
     </g>
    </g>
    <g id="xtick_3">
     <g id="line2d_3">
      <g>
       <use xlink:href="#mb33424c0d0" x="186.91125" y="319.43625" style="stroke: #000000; stroke-width: 0.8"/>
      </g>
     </g>
     <g id="text_3">
      <text style="font: 18px 'Arial', serif; text-anchor: middle" x="186.91125" y="339.320313" transform="rotate(-0 186.91125 339.320313)">40</text>
     </g>
    </g>
    <g id="xtick_4">
     <g id="line2d_4">
      <g>
       <use xlink:href="#mb33424c0d0" x="233.41125" y="319.43625" style="stroke: #000000; stroke-width: 0.8"/>
      </g>
     </g>
     <g id="text_4">
      <text style="font: 18px 'Arial', serif; text-anchor: middle" x="233.41125" y="339.320313" transform="rotate(-0 233.41125 339.320313)">60</text>
     </g>
    </g>
    <g id="xtick_5">
     <g id="line2d_5">
      <g>
       <use xlink:href="#mb33424c0d0" x="279.91125" y="319.43625" style="stroke: #000000; stroke-width: 0.8"/>
      </g>
     </g>
     <g id="text_5">
      <text style="font: 18px 'Arial', serif; text-anchor: middle" x="279.91125" y="339.320313" transform="rotate(-0 279.91125 339.320313)">80</text>
     </g>
    </g>
    <g id="xtick_6">
     <g id="line2d_6">
      <g>
       <use xlink:href="#mb33424c0d0" x="326.41125" y="319.43625" style="stroke: #000000; stroke-width: 0.8"/>
      </g>
     </g>
     <g id="text_6">
      <text style="font: 18px 'Arial', serif; text-anchor: middle" x="326.41125" y="339.320313" transform="rotate(-0 326.41125 339.320313)">100</text>
     </g>
    </g>
    <g id="text_7">
     <text style="font: 18px 'Arial', serif; text-anchor: middle" x="210.16125" y="360.00125" transform="rotate(-0 210.16125 360.00125)">Concentration (g/kg)</text>
    </g>
   </g>
   <g id="matplotlib.axis_2">
    <g id="ytick_1">
     <g id="line2d_7">
      <defs>
       <path id="m8fb81f43e2" d="M 0 0 
L -3.5 0 
" style="stroke: #000000; stroke-width: 0.8"/>
      </defs>
      <g>
       <use xlink:href="#m8fb81f43e2" x="70.66125" y="291.71625" style="stroke: #000000; stroke-width: 0.8"/>
      </g>
     </g>
     <g id="text_8">
      <text style="font: 18px 'Arial', serif; text-anchor: end" x="63.66125" y="298.158281" transform="rotate(-0 63.66125 298.158281)">85</text>
     </g>
    </g>
    <g id="ytick_2">
     <g id="line2d_8">
      <g>
       <use xlink:href="#m8fb81f43e2" x="70.66125" y="236.27625" style="stroke: #000000; stroke-width: 0.8"/>
      </g>
     </g>
     <g id="text_9">
      <text style="font: 18px 'Arial', serif; text-anchor: end" x="63.66125" y="242.718281" transform="rotate(-0 63.66125 242.718281)">90</text>
     </g>
    </g>
    <g id="ytick_3">
     <g id="line2d_9">
      <g>
       <use xlink:href="#m8fb81f43e2" x="70.66125" y="180.83625" style="stroke: #000000; stroke-width: 0.8"/>
      </g>
     </g>
     <g id="text_10">
      <text style="font: 18px 'Arial', serif; text-anchor: end" x="63.66125" y="187.278281" transform="rotate(-0 63.66125 187.278281)">95</text>
     </g>
    </g>
    <g id="ytick_4">
     <g id="line2d_10">
      <g>
       <use xlink:href="#m8fb81f43e2" x="70.66125" y="125.39625" style="stroke: #000000; stroke-width: 0.8"/>
      </g>
     </g>
     <g id="text_11">
      <text style="font: 18px 'Arial', serif; text-anchor: end" x="63.66125" y="131.838281" transform="rotate(-0 63.66125 131.838281)">100</text>
     </g>
    </g>
    <g id="ytick_5">
     <g id="line2d_11">
      <g>
       <use xlink:href="#m8fb81f43e2" x="70.66125" y="69.95625" style="stroke: #000000; stroke-width: 0.8"/>
      </g>
     </g>
     <g id="text_12">
      <text style="font: 18px 'Arial', serif; text-anchor: end" x="63.66125" y="76.398281" transform="rotate(-0 63.66125 76.398281)">105</text>
     </g>
    </g>
    <g id="text_13">
     <text style="font: 18px 'Arial', serif; text-anchor: middle" x="25.84375" y="180.83625" transform="rotate(-90 25.84375 180.83625)">Enthalpy (kJ/kg)</text>
    </g>
   </g>
   <g id="patch_3">
    <path d="M 70.66125 319.43625 
L 70.66125 42.23625 
" style="fill: none; stroke: #000000; stroke-width: 0.8; stroke-linejoin: miter; stroke-linecap: square"/>
   </g>
   <g id="patch_4">
    <path d="M 349.66125 319.43625 
L 349.66125 42.23625 
" style="fill: none; stroke: #000000; stroke-width: 0.8; stroke-linejoin: miter; stroke-linecap: square"/>
   </g>
   <g id="patch_5">
    <path d="M 70.66125 319.43625 
L 349.66125 319.43625 
" style="fill: none; stroke: #000000; stroke-width: 0.8; stroke-linejoin: miter; stroke-linecap: square"/>
   </g>
   <g id="patch_6">
    <path d="M 70.66125 42.23625 
L 349.66125 42.23625 
" style="fill: none; stroke: #000000; stroke-width: 0.8; stroke-linejoin: miter; stroke-linecap: square"/>
   </g>
   <g id="text_14">
    <text style="font: 16px 'Arial', serif; text-anchor: middle" x="12.53625" y="18.6525" transform="rotate(-0 12.53625 18.6525)">A</text>
   </g>
   <g id="line2d_12">
    <path d="M 105.53625 83.149861 
L 117.16125 91.101066 
L 128.78625 99.00681 
L 140.41125 106.871528 
L 152.03625 114.698548 
L 163.66125 122.487868 
L 175.28625 130.238823 
L 186.91125 137.951858 
L 198.53625 145.626306 
L 210.16125 153.261503 
L 221.78625 160.856783 
L 233.41125 168.41137 
L 245.03625 175.924488 
L 256.66125 183.39525 
L 268.28625 190.82299 
L 279.91125 198.207043 
L 291.53625 205.546745 
L 303.16125 212.841651 
L 314.78625 220.091207 
L 326.41125 227.295192 
" clip-path="url(#peda3d472e0)" style="fill: none; stroke: #ffd046; stroke-width: 2; stroke-linecap: square"/>
   </g>
   <g id="line2d_13">
    <path d="M 105.53625 85.852007 
L 117.16125 96.461005 
L 128.78625 106.969103 
L 140.41125 117.377408 
L 152.03625 127.684481 
L 163.66125 137.888434 
L 175.28625 147.986387 
L 186.91125 157.975233 
L 198.53625 167.852867 
L 210.16125 177.615408 
L 221.78625 187.260748 
L 233.41125 196.786782 
L 245.03625 206.191734 
L 256.66125 215.474164 
L 268.28625 224.633406 
L 279.91125 233.669129 
L 291.53625 242.586209 
L 303.16125 251.376665 
L 314.78625 260.045817 
L 326.41125 268.595442 
" clip-path="url(#peda3d472e0)" style="fill: none; stroke-dasharray: 7.4,3.2; stroke-dashoffset: 0; stroke: #4a7b9d; stroke-width: 2"/>
   </g>
   <g id="line2d_14">
    <path d="M 105.53625 86.709109 
L 117.16125 98.155252 
L 128.78625 109.483861 
L 140.41125 120.691612 
L 152.03625 131.777283 
L 163.66125 142.735332 
L 175.28625 153.561101 
L 186.91125 164.249489 
L 198.53625 174.795508 
L 210.16125 185.195497 
L 221.78625 195.443581 
L 233.41125 205.537431 
L 245.03625 215.474164 
L 256.66125 225.252228 
L 268.28625 234.870735 
L 279.91125 244.330019 
L 291.53625 253.631077 
L 303.16125 262.786771 
L 314.78625 271.778806 
L 326.41125 280.620156 
" clip-path="url(#peda3d472e0)" style="fill: none; stroke-dasharray: 2,3.3; stroke-dashoffset: 0; stroke: #4a7b9d; stroke-width: 2"/>
   </g>
   <g id="legend_1">
    <g id="line2d_15">
     <path d="M 83.26125 259.546875 
L 97.26125 259.546875 
L 111.26125 259.546875 
" style="fill: none; stroke: #ffd046; stroke-width: 2; stroke-linecap: square"/>
    </g>
    <g id="text_15">
     <text style="font: 14px 'Arial', serif; text-anchor: start" x="122.46125" y="264.446875" transform="rotate(-0 122.46125 264.446875)">Seawater</text>
    </g>
    <g id="line2d_16">
     <path d="M 83.26125 279.350313 
L 97.26125 279.350313 
L 111.26125 279.350313 
" style="fill: none; stroke-dasharray: 7.4,3.2; stroke-dashoffset: 0; stroke: #4a7b9d; stroke-width: 2"/>
    </g>
    <g id="text_16">
     <text style="font: 14px 'Arial', serif; text-anchor: start" x="122.46125" y="284.250313" transform="rotate(-0 122.46125 284.250313)">Monovalent dominant</text>
    </g>
    <g id="line2d_17">
     <path d="M 83.26125 299.15375 
L 97.26125 299.15375 
L 111.26125 299.15375 
" style="fill: none; stroke-dasharray: 2,3.3; stroke-dashoffset: 0; stroke: #4a7b9d; stroke-width: 2"/>
    </g>
    <g id="text_17">
     <text style="font: 14px 'Arial', serif; text-anchor: start" x="122.46125" y="304.05375" transform="rotate(-0 122.46125 304.05375)">Divalent dominant</text>
    </g>
   </g>
  </g>
 </g>
 <defs>
  <clipPath id="peda3d472e0">
   <rect x="70.66125" y="42.23625" width="279" height="277.2"/>
  </clipPath>
 </defs>
</svg>
