<?xml version="1.0" encoding="utf-8" standalone="no"?>
<!DOCTYPE svg PUBLIC "-//W3C//DTD SVG 1.1//EN"
  "http://www.w3.org/Graphics/SVG/1.1/DTD/svg11.dtd">
<svg xmlns:xlink="http://www.w3.org/1999/xlink" width="295.532187pt" height="310.005687pt" viewBox="0 0 295.532187 310.005687" xmlns="http://www.w3.org/2000/svg" version="1.1">
 <metadata>
  <rdf:RDF xmlns:dc="http://purl.org/dc/elements/1.1/" xmlns:cc="http://creativecommons.org/ns#" xmlns:rdf="http://www.w3.org/1999/02/22-rdf-syntax-ns#">
   <cc:Work>
    <dc:type rdf:resource="http://purl.org/dc/dcmitype/StillImage"/>
    <dc:date>2025-10-06T19:27:03.583563</dc:date>
    <dc:format>image/svg+xml</dc:format>
    <dc:creator>
     <cc:Agent>
      <dc:title>Matplotlib v3.7.5, https://matplotlib.org/</dc:title>
     </cc:Agent>
    </dc:creator>
   </cc:Work>
  </rdf:RDF>
 </metadata>
 <defs>
  <style type="text/css">*{stroke-linejoin: round; stroke-linecap: butt}</style>
 </defs>
 <g id="figure_1">
  <g id="patch_1">
   <path d="M 0 310.005687 
L 295.532187 310.005687 
L 295.532187 0 
L 0 0 
z
" style="fill: #ffffff"/>
  </g>
  <g id="axes_1">
   <g id="patch_2">
    <path d="M 65.132188 258.45225 
L 288.332187 258.45225 
L 288.332187 36.69225 
L 65.132188 36.69225 
z
" style="fill: #ffffff"/>
   </g>
   <g id="matplotlib.axis_1">
    <g id="xtick_1">
     <g id="line2d_1">
      <defs>
       <path id="md765922c45" d="M 0 0 
L 0 3.5 
" style="stroke: #000000; stroke-width: 0.8"/>
      </defs>
      <g>
       <use xlink:href="#md765922c45" x="83.732187" y="258.45225" style="stroke: #000000; stroke-width: 0.8"/>
      </g>
     </g>
     <g id="text_1">
      <text style="font: 18px 'Arial', serif; text-anchor: middle" x="83.732187" y="278.336312" transform="rotate(-0 83.732187 278.336312)">0</text>
     </g>
    </g>
    <g id="xtick_2">
     <g id="line2d_2">
      <g>
       <use xlink:href="#md765922c45" x="120.932187" y="258.45225" style="stroke: #000000; stroke-width: 0.8"/>
      </g>
     </g>
     <g id="text_2">
      <text style="font: 18px 'Arial', serif; text-anchor: middle" x="120.932187" y="278.336312" transform="rotate(-0 120.932187 278.336312)">20</text>
     </g>
    </g>
    <g id="xtick_3">
     <g id="line2d_3">
      <g>
       <use xlink:href="#md765922c45" x="158.132187" y="258.45225" style="stroke: #000000; stroke-width: 0.8"/>
      </g>
     </g>
     <g id="text_3">
      <text style="font: 18px 'Arial', serif; text-anchor: middle" x="158.132187" y="278.336312" transform="rotate(-0 158.132187 278.336312)">40</text>
     </g>
    </g>
    <g id="xtick_4">
     <g id="line2d_4">
      <g>
       <use xlink:href="#md765922c45" x="195.332187" y="258.45225" style="stroke: #000000; stroke-width: 0.8"/>
      </g>
     </g>
     <g id="text_4">
      <text style="font: 18px 'Arial', serif; text-anchor: middle" x="195.332187" y="278.336312" transform="rotate(-0 195.332187 278.336312)">60</text>
     </g>
    </g>
    <g id="xtick_5">
     <g id="line2d_5">
      <g>
       <use xlink:href="#md765922c45" x="232.532187" y="258.45225" style="stroke: #000000; stroke-width: 0.8"/>
      </g>
     </g>
     <g id="text_5">
      <text style="font: 18px 'Arial', serif; text-anchor: middle" x="232.532187" y="278.336312" transform="rotate(-0 232.532187 278.336312)">80</text>
     </g>
    </g>
    <g id="xtick_6">
     <g id="line2d_6">
      <g>
       <use xlink:href="#md765922c45" x="269.732188" y="258.45225" style="stroke: #000000; stroke-width: 0.8"/>
      </g>
     </g>
     <g id="text_6">
      <text style="font: 18px 'Arial', serif; text-anchor: middle" x="269.732188" y="278.336312" transform="rotate(-0 269.732188 278.336312)">100</text>
     </g>
    </g>
    <g id="text_7">
     <text style="font: 18px 'Arial', serif; text-anchor: middle" x="176.732188" y="299.01725" transform="rotate(-0 176.732188 299.01725)">Concentration (g/kg)</text>
    </g>
   </g>
   <g id="matplotlib.axis_2">
    <g id="ytick_1">
     <g id="line2d_7">
      <defs>
       <path id="mddfccc157b" d="M 0 0 
L -3.5 0 
" style="stroke: #000000; stroke-width: 0.8"/>
      </defs>
      <g>
       <use xlink:href="#mddfccc157b" x="65.132188" y="236.27625" style="stroke: #000000; stroke-width: 0.8"/>
      </g>
     </g>
     <g id="text_8">
      <text style="font: 18px 'Arial', serif; text-anchor: end" x="58.132188" y="242.718281" transform="rotate(-0 58.132188 242.718281)">5</text>
     </g>
    </g>
    <g id="ytick_2">
     <g id="line2d_8">
      <g>
       <use xlink:href="#mddfccc157b" x="65.132188" y="191.92425" style="stroke: #000000; stroke-width: 0.8"/>
      </g>
     </g>
     <g id="text_9">
      <text style="font: 18px 'Arial', serif; text-anchor: end" x="58.132188" y="198.366281" transform="rotate(-0 58.132188 198.366281)">30</text>
     </g>
    </g>
    <g id="ytick_3">
     <g id="line2d_9">
      <g>
       <use xlink:href="#mddfccc157b" x="65.132188" y="147.57225" style="stroke: #000000; stroke-width: 0.8"/>
      </g>
     </g>
     <g id="text_10">
      <text style="font: 18px 'Arial', serif; text-anchor: end" x="58.132188" y="154.014281" transform="rotate(-0 58.132188 154.014281)">55</text>
     </g>
    </g>
    <g id="ytick_4">
     <g id="line2d_10">
      <g>
       <use xlink:href="#mddfccc157b" x="65.132188" y="103.22025" style="stroke: #000000; stroke-width: 0.8"/>
      </g>
     </g>
     <g id="text_11">
      <text style="font: 18px 'Arial', serif; text-anchor: end" x="58.132188" y="109.662281" transform="rotate(-0 58.132188 109.662281)">80</text>
     </g>
    </g>
    <g id="ytick_5">
     <g id="line2d_11">
      <g>
       <use xlink:href="#mddfccc157b" x="65.132188" y="58.86825" style="stroke: #000000; stroke-width: 0.8"/>
      </g>
     </g>
     <g id="text_12">
      <text style="font: 18px 'Arial', serif; text-anchor: end" x="58.132188" y="65.310281" transform="rotate(-0 58.132188 65.310281)">105</text>
     </g>
    </g>
    <g id="text_13">
     <text style="font: 18px 'Arial', serif; text-anchor: middle" x="20.314688" y="147.57225" transform="rotate(-90 20.314688 147.57225)">Osmotic pressure (bar)</text>
    </g>
   </g>
   <g id="patch_3">
    <path d="M 65.132188 258.45225 
L 65.132188 36.69225 
" style="fill: none; stroke: #000000; stroke-width: 0.8; stroke-linejoin: miter; stroke-linecap: square"/>
   </g>
   <g id="patch_4">
    <path d="M 288.332187 258.45225 
L 288.332187 36.69225 
" style="fill: none; stroke: #000000; stroke-width: 0.8; stroke-linejoin: miter; stroke-linecap: square"/>
   </g>
   <g id="patch_5">
    <path d="M 65.132188 258.45225 
L 288.332187 258.45225 
" style="fill: none; stroke: #000000; stroke-width: 0.8; stroke-linejoin: miter; stroke-linecap: square"/>
   </g>
   <g id="patch_6">
    <path d="M 65.132188 36.69225 
L 288.332187 36.69225 
" style="fill: none; stroke: #000000; stroke-width: 0.8; stroke-linejoin: miter; stroke-linecap: square"/>
   </g>
   <g id="text_14">
    <text style="font: 16px 'Arial', serif; text-anchor: middle" x="18.632188" y="18.6525" transform="rotate(-0 18.632188 18.6525)">B</text>
   </g>
   <g id="line2d_12">
    <path d="M 93.032187 238.720741 
L 102.332187 232.390532 
L 111.632187 226.002322 
L 120.932187 219.522317 
L 130.232188 212.933562 
L 139.532187 206.224257 
L 148.832187 199.384576 
L 158.132187 192.405593 
L 167.432187 185.278724 
L 176.732188 177.995558 
L 186.032187 170.547704 
L 195.332187 162.92677 
L 204.632187 155.124278 
L 213.932187 147.131693 
L 223.232188 138.940375 
L 232.532187 130.541579 
L 241.832187 121.92638 
L 251.132187 113.085785 
L 260.432187 104.010603 
L 269.732188 94.691467 
" clip-path="url(#pbb528c6ba5)" style="fill: none; stroke: #ffd046; stroke-width: 2; stroke-linecap: square"/>
   </g>
   <g id="line2d_13">
    <path d="M 93.032187 237.347943 
L 102.332187 229.661809 
L 111.632187 221.882483 
L 120.932187 213.965296 
L 130.232188 205.885071 
L 139.532187 197.6224 
L 148.832187 189.160145 
L 158.132187 180.482321 
L 167.432187 171.573565 
L 176.732188 162.418993 
L 186.032187 153.004093 
L 195.332187 143.314653 
L 204.632187 133.33673 
L 213.932187 123.05654 
L 223.232188 112.460528 
L 232.532187 101.535264 
L 241.832187 90.267444 
L 251.132187 78.643796 
L 260.432187 66.651139 
L 269.732188 54.276399 
" clip-path="url(#pbb528c6ba5)" style="fill: none; stroke-dasharray: 7.4,3.2; stroke-dashoffset: 0; stroke: #4a7b9d; stroke-width: 2"/>
   </g>
   <g id="line2d_14">
    <path d="M 93.032187 238.511665 
L 102.332187 232.077194 
L 111.632187 225.615998 
L 120.932187 219.071541 
L 130.232188 212.409942 
L 139.532187 205.604731 
L 148.832187 198.632898 
L 158.132187 191.473403 
L 167.432187 184.106731 
L 176.732188 176.514573 
L 186.032187 168.679668 
L 195.332187 160.585677 
L 204.632187 152.21704 
L 213.932187 143.558997 
L 223.232188 134.597374 
L 232.532187 125.318581 
L 241.832187 115.709578 
L 251.132187 105.757734 
L 260.432187 95.450897 
L 269.732188 84.777216 
" clip-path="url(#pbb528c6ba5)" style="fill: none; stroke-dasharray: 2,3.3; stroke-dashoffset: 0; stroke: #4a7b9d; stroke-width: 2"/>
   </g>
  </g>
 </g>
 <defs>
  <clipPath id="pbb528c6ba5">
   <rect x="65.132188" y="36.69225" width="223.2" height="221.76"/>
  </clipPath>
 </defs>
</svg>
